<svg width="300" height="400" viewBox="0 0 300 400" fill="none" xmlns="http://www.w3.org/2000/svg">
  <defs>
    <!-- Background gradient -->
    <linearGradient id="bgGradient" x1="0%" y1="0%" x2="100%" y2="100%">
      <stop offset="0%" style="stop-color:#0f172a;stop-opacity:1" />
      <stop offset="100%" style="stop-color:#1e293b;stop-opacity:1" />
    </linearGradient>
    
    <!-- Person gradient -->
    <linearGradient id="personGradient" x1="0%" y1="0%" x2="100%" y2="100%">
      <stop offset="0%" style="stop-color:#3b82f6;stop-opacity:1" />
      <stop offset="100%" style="stop-color:#8b5cf6;stop-opacity:1" />
    </linearGradient>
    
    <!-- Interface gradient -->
    <linearGradient id="interfaceGradient" x1="0%" y1="0%" x2="100%" y2="100%">
      <stop offset="0%" style="stop-color:#1e40af;stop-opacity:0.8" />
      <stop offset="100%" style="stop-color:#7c3aed;stop-opacity:0.8" />
    </linearGradient>
    
    <!-- Neon accent gradient -->
    <linearGradient id="neonGradient" x1="0%" y1="0%" x2="100%" y2="100%">
      <stop offset="0%" style="stop-color:#06b6d4;stop-opacity:1" />
      <stop offset="100%" style="stop-color:#10b981;stop-opacity:1" />
    </linearGradient>
    
    <!-- Cloud gradient -->
    <linearGradient id="cloudGradient" x1="0%" y1="0%" x2="100%" y2="100%">
      <stop offset="0%" style="stop-color:#6366f1;stop-opacity:0.7" />
      <stop offset="100%" style="stop-color:#8b5cf6;stop-opacity:0.7" />
    </linearGradient>
    
    <!-- Glow filter -->
    <filter id="glow">
      <feGaussianBlur stdDeviation="3" result="coloredBlur"/>
      <feMerge> 
        <feMergeNode in="coloredBlur"/>
        <feMergeNode in="SourceGraphic"/>
      </feMerge>
    </filter>
  </defs>
  
  <!-- Background -->
  <rect width="300" height="400" fill="url(#bgGradient)"/>
  
  <!-- Abstract background shapes -->
  <circle cx="250" cy="80" r="40" fill="url(#interfaceGradient)" opacity="0.3"/>
  <circle cx="50" cy="320" r="60" fill="url(#interfaceGradient)" opacity="0.2"/>
  <ellipse cx="200" cy="350" rx="80" ry="30" fill="url(#neonGradient)" opacity="0.1"/>
  
  <!-- Person silhouette -->
  <g transform="translate(120, 180)">
    <!-- Head -->
    <circle cx="30" cy="30" r="25" fill="url(#personGradient)"/>
    
    <!-- Body -->
    <rect x="15" y="50" width="30" height="60" rx="15" fill="url(#personGradient)"/>
    
    <!-- Arms -->
    <rect x="-5" y="65" width="20" height="8" rx="4" fill="url(#personGradient)"/>
    <rect x="45" y="65" width="20" height="8" rx="4" fill="url(#personGradient)"/>
    
    <!-- Legs -->
    <rect x="20" y="105" width="8" height="35" rx="4" fill="url(#personGradient)"/>
    <rect x="32" y="105" width="8" height="35" rx="4" fill="url(#personGradient)"/>
  </g>
  
  <!-- Floating interface elements -->
  <!-- Main interface panel -->
  <rect x="180" y="140" width="100" height="80" rx="12" fill="url(#interfaceGradient)" filter="url(#glow)"/>
  <rect x="185" y="145" width="90" height="70" rx="8" fill="none" stroke="url(#neonGradient)" stroke-width="1" opacity="0.5"/>
  
  <!-- Interface details -->
  <rect x="190" y="155" width="80" height="4" rx="2" fill="url(#neonGradient)" opacity="0.8"/>
  <rect x="190" y="165" width="60" height="3" rx="1.5" fill="url(#neonGradient)" opacity="0.6"/>
  <rect x="190" y="175" width="70" height="3" rx="1.5" fill="url(#neonGradient)" opacity="0.6"/>
  
  <!-- Biometric lock -->
  <g transform="translate(50, 120)">
    <rect x="0" y="15" width="30" height="25" rx="5" fill="url(#interfaceGradient)" filter="url(#glow)"/>
    <rect x="10" y="5" width="10" height="15" rx="5" fill="none" stroke="url(#neonGradient)" stroke-width="2"/>
    <circle cx="15" cy="25" r="3" fill="url(#neonGradient)"/>
    <circle cx="15" cy="25" r="8" fill="none" stroke="url(#neonGradient)" stroke-width="1" opacity="0.3"/>
  </g>
  
  <!-- Chat bubbles -->
  <g transform="translate(40, 250)">
    <!-- Bubble 1 -->
    <ellipse cx="20" cy="15" rx="18" ry="12" fill="url(#interfaceGradient)" filter="url(#glow)"/>
    <polygon points="8,20 15,25 8,25" fill="url(#interfaceGradient)"/>
    <circle cx="15" cy="15" r="2" fill="url(#neonGradient)"/>
    <circle cx="20" cy="15" r="2" fill="url(#neonGradient)"/>
    <circle cx="25" cy="15" r="2" fill="url(#neonGradient)"/>
    
    <!-- Bubble 2 -->
    <ellipse cx="60" cy="35" rx="22" ry="15" fill="url(#cloudGradient)" filter="url(#glow)"/>
    <polygon points="70,45 77,50 70,50" fill="url(#cloudGradient)"/>
    <rect x="50" y="30" width="20" height="2" rx="1" fill="url(#neonGradient)" opacity="0.8"/>
    <rect x="52" y="35" width="16" height="2" rx="1" fill="url(#neonGradient)" opacity="0.6"/>
    <rect x="54" y="40" width="12" height="2" rx="1" fill="url(#neonGradient)" opacity="0.6"/>
  </g>
  
  <!-- Cloud storage icons -->
  <g transform="translate(220, 60)">
    <path d="M 0 20 Q 0 15 5 15 Q 10 10 20 10 Q 30 10 35 15 Q 40 15 40 20 Q 40 25 35 25 L 5 25 Q 0 25 0 20" 
          fill="url(#cloudGradient)" filter="url(#glow)"/>
    <circle cx="20" cy="20" r="3" fill="url(#neonGradient)"/>
    <rect x="17" y="17" width="6" height="1" rx="0.5" fill="url(#neonGradient)" opacity="0.8"/>
    <rect x="17" y="20" width="6" height="1" rx="0.5" fill="url(#neonGradient)" opacity="0.8"/>
    <rect x="17" y="23" width="6" height="1" rx="0.5" fill="url(#neonGradient)" opacity="0.8"/>
  </g>
  
  <!-- Login form elements -->
  <g transform="translate(200, 280)">
    <!-- Input field 1 -->
    <rect x="0" y="0" width="80" height="20" rx="10" fill="url(#interfaceGradient)" opacity="0.6"/>
    <rect x="5" y="5" width="70" height="10" rx="5" fill="none" stroke="url(#neonGradient)" stroke-width="1" opacity="0.5"/>
    <rect x="10" y="8" width="30" height="2" rx="1" fill="url(#neonGradient)" opacity="0.7"/>
    
    <!-- Input field 2 -->
    <rect x="0" y="25" width="80" height="20" rx="10" fill="url(#interfaceGradient)" opacity="0.6"/>
    <rect x="5" y="30" width="70" height="10" rx="5" fill="none" stroke="url(#neonGradient)" stroke-width="1" opacity="0.5"/>
    <circle cx="15" cy="35" r="1" fill="url(#neonGradient)" opacity="0.7"/>
    <circle cx="20" cy="35" r="1" fill="url(#neonGradient)" opacity="0.7"/>
    <circle cx="25" cy="35" r="1" fill="url(#neonGradient)" opacity="0.7"/>
    
    <!-- Login button -->
    <rect x="0" y="50" width="80" height="18" rx="9" fill="url(#neonGradient)" filter="url(#glow)"/>
    <rect x="30" y="56" width="20" height="2" rx="1" fill="white" opacity="0.9"/>
  </g>
  
  <!-- Floating particles/data points -->
  <circle cx="80" cy="100" r="2" fill="url(#neonGradient)" opacity="0.8"/>
  <circle cx="220" cy="200" r="1.5" fill="url(#neonGradient)" opacity="0.6"/>
  <circle cx="60" cy="300" r="2.5" fill="url(#cloudGradient)" opacity="0.7"/>
  <circle cx="250" cy="300" r="1" fill="url(#neonGradient)" opacity="0.8"/>
  <circle cx="30" cy="180" r="1.5" fill="url(#cloudGradient)" opacity="0.6"/>
  
  <!-- Connection lines -->
  <line x1="150" y1="240" x2="180" y2="180" stroke="url(#neonGradient)" stroke-width="1" opacity="0.3"/>
  <line x1="80" y1="145" x2="120" y2="195" stroke="url(#neonGradient)" stroke-width="1" opacity="0.3"/>
  <line x1="240" y1="80" x2="280" y2="140" stroke="url(#cloudGradient)" stroke-width="1" opacity="0.3"/>
  
  <!-- Soft glow overlay -->
  <circle cx="150" cy="200" r="100" fill="url(#neonGradient)" opacity="0.05"/>
</svg>
