<svg width="400" height="400" viewBox="0 0 400 400" fill="none" xmlns="http://www.w3.org/2000/svg">
  <defs>
    <linearGradient id="hexGradient" x1="0%" y1="0%" x2="100%" y2="100%">
      <stop offset="0%" style="stop-color:#667eea"/>
      <stop offset="50%" style="stop-color:#764ba2"/>
      <stop offset="100%" style="stop-color:#f093fb"/>
    </linearGradient>
    
    <linearGradient id="accentGradient" x1="0%" y1="0%" x2="100%" y2="100%">
      <stop offset="0%" style="stop-color:#f5576c"/>
      <stop offset="100%" style="stop-color:#f093fb"/>
    </linearGradient>
    
    <linearGradient id="centerGradient" x1="0%" y1="0%" x2="100%" y2="100%">
      <stop offset="0%" style="stop-color:#4facfe"/>
      <stop offset="100%" style="stop-color:#00f2fe"/>
    </linearGradient>
  </defs>
  
  <!-- Central hexagon -->
  <polygon points="200,130 250,160 250,210 200,240 150,210 150,160" fill="url(#centerGradient)" opacity="0.9"/>
  
  <!-- Surrounding hexagons -->
  <polygon points="200,60 240,80 240,120 200,140 160,120 160,80" fill="url(#hexGradient)" opacity="0.8"/>
  <polygon points="130,95 170,115 170,155 130,175 90,155 90,115" fill="url(#accentGradient)" opacity="0.7"/>
  <polygon points="270,95 310,115 310,155 270,175 230,155 230,115" fill="url(#accentGradient)" opacity="0.7"/>
  <polygon points="130,225 170,245 170,285 130,305 90,285 90,245" fill="url(#hexGradient)" opacity="0.8"/>
  <polygon points="270,225 310,245 310,285 270,305 230,285 230,245" fill="url(#hexGradient)" opacity="0.8"/>
  <polygon points="200,260 240,280 240,320 200,340 160,320 160,280" fill="url(#accentGradient)" opacity="0.7"/>
  
  <!-- Corner decorations -->
  <circle cx="80" cy="80" r="15" fill="#f5576c" opacity="0.6"/>
  <circle cx="320" cy="80" r="12" fill="#4facfe" opacity="0.7"/>
  <circle cx="80" cy="320" r="18" fill="#00f2fe" opacity="0.6"/>
  <circle cx="320" cy="320" r="15" fill="#f093fb" opacity="0.7"/>
  
  <!-- Connecting lines -->
  <line x1="200" y1="140" x2="200" y2="130" stroke="white" stroke-width="2" opacity="0.5"/>
  <line x1="150" y1="175" x2="130" y2="175" stroke="white" stroke-width="2" opacity="0.5"/>
  <line x1="250" y1="175" x2="270" y2="175" stroke="white" stroke-width="2" opacity="0.5"/>
  <line x1="150" y1="225" x2="130" y2="225" stroke="white" stroke-width="2" opacity="0.5"/>
  <line x1="250" y1="225" x2="270" y2="225" stroke="white" stroke-width="2" opacity="0.5"/>
  <line x1="200" y1="240" x2="200" y2="260" stroke="white" stroke-width="2" opacity="0.5"/>
  
  <!-- Inner details -->
  <circle cx="200" cy="185" r="20" fill="white" opacity="0.3"/>
  <circle cx="200" cy="185" r="10" fill="white" opacity="0.5"/>
</svg>
